<svg width="25" height="25" viewBox="0 0 25 25" fill="none" xmlns="http://www.w3.org/2000/svg">
<path fill-rule="evenodd" clip-rule="evenodd" d="M12.5 5.46875C12.7072 5.46875 12.9059 5.55106 13.0524 5.69757C13.1989 5.84409 13.2812 6.0428 13.2812 6.25V12.5C13.2812 12.7072 13.1989 12.9059 13.0524 13.0524C12.9059 13.1989 12.7072 13.2812 12.5 13.2812H6.25C6.0428 13.2812 5.84409 13.1989 5.69757 13.0524C5.55106 12.9059 5.46875 12.7072 5.46875 12.5C5.46875 12.2928 5.55106 12.0941 5.69757 11.9476C5.84409 11.8011 6.0428 11.7188 6.25 11.7188H11.7188V6.25C11.7188 6.0428 11.8011 5.84409 11.9476 5.69757C12.0941 5.55106 12.2928 5.46875 12.5 5.46875Z" fill="#006CFF"/>
<path fill-rule="evenodd" clip-rule="evenodd" d="M11.7188 12.5C11.7188 12.2928 11.8011 12.0941 11.9476 11.9476C12.0941 11.8011 12.2928 11.7188 12.5 11.7188H18.75C18.9572 11.7188 19.1559 11.8011 19.3024 11.9476C19.4489 12.0941 19.5312 12.2928 19.5312 12.5C19.5312 12.7072 19.4489 12.9059 19.3024 13.0524C19.1559 13.1989 18.9572 13.2812 18.75 13.2812H13.2812V18.75C13.2812 18.9572 13.1989 19.1559 13.0524 19.3024C12.9059 19.4489 12.7072 19.5312 12.5 19.5312C12.2928 19.5312 12.0941 19.4489 11.9476 19.3024C11.8011 19.1559 11.7188 18.9572 11.7188 18.75V12.5Z" fill="#006CFF"/>
<path fill-rule="evenodd" clip-rule="evenodd" d="M12.5 23.4375C15.4008 23.4375 18.1828 22.2852 20.234 20.234C22.2852 18.1828 23.4375 15.4008 23.4375 12.5C23.4375 9.59919 22.2852 6.8172 20.234 4.76602C18.1828 2.71484 15.4008 1.5625 12.5 1.5625C9.59919 1.5625 6.8172 2.71484 4.76602 4.76602C2.71484 6.8172 1.5625 9.59919 1.5625 12.5C1.5625 15.4008 2.71484 18.1828 4.76602 20.234C6.8172 22.2852 9.59919 23.4375 12.5 23.4375ZM12.5 25C15.8152 25 18.9946 23.683 21.3388 21.3388C23.683 18.9946 25 15.8152 25 12.5C25 9.18479 23.683 6.00537 21.3388 3.66117C18.9946 1.31696 15.8152 0 12.5 0C9.18479 0 6.00537 1.31696 3.66117 3.66117C1.31696 6.00537 0 9.18479 0 12.5C0 15.8152 1.31696 18.9946 3.66117 21.3388C6.00537 23.683 9.18479 25 12.5 25Z" fill="#006CFF"/>
</svg>
